<?xml version="1.0" standalone="no"?>
<!DOCTYPE svg PUBLIC "-//W3C//DTD SVG 20010904//EN"
 "http://www.w3.org/TR/2001/REC-SVG-20010904/DTD/svg10.dtd">
<svg version="1.0" xmlns="http://www.w3.org/2000/svg"
 width="512.000000pt" height="512.000000pt" viewBox="0 0 512.000000 512.000000"
 preserveAspectRatio="xMidYMid meet">
<metadata>
Created by potrace 1.14, written by Peter Selinger 2001-2017
</metadata>
<g transform="translate(0.000000,512.000000) scale(0.100000,-0.100000)"
fill="#000000" stroke="none">
<path d="M1483 3815 c-44 -19 -57 -49 -57 -130 0 -130 24 -145 229 -145 l145
0 0 -985 0 -985 -145 0 c-205 0 -229 -15 -229 -145 0 -81 18 -117 66 -134 51
-18 1148 -15 1268 3 489 74 819 417 916 951 25 137 26 480 2 610 -53 282 -169
519 -333 679 -153 150 -353 247 -585 282 -136 20 -1229 20 -1277 -1z m1249
-299 c351 -82 562 -349 619 -781 15 -114 7 -363 -16 -470 -65 -309 -225 -526
-459 -624 -132 -55 -186 -63 -483 -68 l-273 -5 0 987 0 987 273 -5 c197 -4
290 -9 339 -21z"/>
</g>
</svg>
